<svg xmlns="http://www.w3.org/2000/svg" xmlns:xlink="http://www.w3.org/1999/xlink" width="500" zoomAndPan="magnify" viewBox="0 0 375 374.999991" height="500" preserveAspectRatio="xMidYMid meet" version="1.0"><defs><g/><clipPath id="id1"><path d="M 46.316406 37.5 L 328.316406 37.5 L 328.316406 319.5 L 46.316406 319.5 Z M 46.316406 37.5 " clip-rule="nonzero"/></clipPath><clipPath id="id2"><path d="M 46.316406 37.5 L 328.316406 37.5 L 328.316406 319.5 L 46.316406 319.5 Z M 46.316406 37.5 " clip-rule="nonzero"/></clipPath><clipPath id="id3"><path d="M 187.316406 37.5 C 109.441406 37.5 46.316406 100.628906 46.316406 178.5 C 46.316406 256.371094 109.441406 319.5 187.316406 319.5 C 265.1875 319.5 328.316406 256.371094 328.316406 178.5 C 328.316406 100.628906 265.1875 37.5 187.316406 37.5 " clip-rule="nonzero"/></clipPath></defs><rect x="-37.5" width="450" fill="#ffffff" y="-37.499999" height="449.999989" fill-opacity="1"/><rect x="-37.5" width="450" fill="#ffffff" y="-37.499999" height="449.999989" fill-opacity="1"/><rect x="-37.5" width="450" fill="#ffffff" y="-37.499999" height="449.999989" fill-opacity="1"/><g clip-path="url(#id1)"><path fill="#8c9487" d="M 187.316406 37.5 C 109.441406 37.5 46.316406 100.628906 46.316406 178.5 C 46.316406 256.371094 109.441406 319.5 187.316406 319.5 C 265.1875 319.5 328.316406 256.371094 328.316406 178.5 C 328.316406 100.628906 265.1875 37.5 187.316406 37.5 " fill-opacity="1" fill-rule="nonzero"/></g><g clip-path="url(#id2)"><g clip-path="url(#id3)"><path stroke-linecap="butt" transform="matrix(0.749035, 0, 0, 0.749035, 46.315084, 37.499998)" fill="none" stroke-linejoin="miter" d="M 188.243975 0.00000328756 C 84.276868 0.00000328756 0.00176546 84.280321 0.00176546 188.242213 C 0.00176546 292.204104 84.276868 376.484422 188.243975 376.484422 C 292.205866 376.484422 376.486184 292.204104 376.486184 188.242213 C 376.486184 84.280321 292.205866 0.00000328756 188.243975 0.00000328756 " stroke="#8fa382" stroke-width="4" stroke-opacity="1" stroke-miterlimit="4"/></g></g><g fill="#ffffff" fill-opacity="1"><g transform="translate(157.133725, 172.143591)"><g><path d="M 3.46875 0.53125 C 2.488281 0.53125 1.65625 0.316406 0.96875 -0.109375 C 0.28125 -0.546875 -0.0625 -1.125 -0.0625 -1.84375 C -0.0625 -2.332031 0.0664062 -2.742188 0.328125 -3.078125 C 0.597656 -3.410156 0.988281 -3.578125 1.5 -3.578125 C 1.945312 -3.578125 2.28125 -3.425781 2.5 -3.125 C 2.726562 -2.820312 2.84375 -2.484375 2.84375 -2.109375 C 2.84375 -1.796875 2.796875 -1.550781 2.703125 -1.375 C 2.816406 -1.164062 3.007812 -1.015625 3.28125 -0.921875 C 3.5625 -0.835938 3.804688 -0.804688 4.015625 -0.828125 C 4.703125 -0.859375 5.203125 -1.164062 5.515625 -1.75 C 5.828125 -2.34375 5.984375 -3.304688 5.984375 -4.640625 L 5.984375 -22.046875 L 2.578125 -21.921875 L 2.578125 -23.390625 L 11.453125 -23.390625 L 11.453125 -22.28125 C 10.429688 -22.28125 9.75 -21.992188 9.40625 -21.421875 C 9.0625 -20.859375 8.890625 -20.039062 8.890625 -18.96875 L 8.890625 -8.15625 C 8.890625 -6.039062 8.703125 -4.351562 8.328125 -3.09375 C 7.960938 -1.832031 7.382812 -0.910156 6.59375 -0.328125 C 5.800781 0.242188 4.757812 0.53125 3.46875 0.53125 Z M 3.46875 0.53125 "/></g></g></g><g fill="#ffffff" fill-opacity="1"><g transform="translate(169.591373, 172.143591)"><g><path d="M 5.609375 -18.9375 L 5.578125 -18.9375 L 5.671875 -4.640625 C 5.671875 -3.148438 5.648438 -2.050781 5.609375 -1.34375 L 8.015625 -1.46875 L 8.015625 0 L 1.90625 0 L 1.90625 -1.109375 C 2.789062 -1.109375 3.378906 -1.363281 3.671875 -1.875 C 3.960938 -2.382812 4.109375 -3.003906 4.109375 -3.734375 L 4.140625 -22.046875 L 1.90625 -21.921875 L 1.90625 -23.390625 L 5.875 -23.390625 L 20.109375 -4.34375 L 20.140625 -4.34375 L 20.171875 -19.640625 C 20.171875 -20.578125 20.207031 -21.378906 20.28125 -22.046875 L 17.875 -21.921875 L 17.875 -23.390625 L 24.015625 -23.390625 L 24.015625 -22.28125 C 23.347656 -22.257812 22.851562 -22.128906 22.53125 -21.890625 C 22.207031 -21.660156 22 -21.34375 21.90625 -20.9375 C 21.820312 -20.539062 21.78125 -20.007812 21.78125 -19.34375 L 21.78125 -18.171875 L 21.71875 0.53125 L 20.109375 0.53125 Z M 5.609375 -18.9375 "/></g></g></g><g fill="#ffffff" fill-opacity="1"><g transform="translate(195.041041, 172.143591)"><g><path d="M 1.84375 -1.109375 C 2.613281 -1.128906 3.164062 -1.304688 3.5 -1.640625 C 3.84375 -1.972656 4.035156 -2.363281 4.078125 -2.8125 C 4.117188 -3.269531 4.140625 -4.070312 4.140625 -5.21875 L 4.140625 -19.640625 C 4.140625 -20.578125 4.175781 -21.378906 4.25 -22.046875 L 1.84375 -21.921875 L 1.84375 -23.390625 L 9.359375 -23.390625 L 9.359375 -22.28125 C 8.578125 -22.257812 8.019531 -22.082031 7.6875 -21.75 C 7.351562 -21.414062 7.160156 -21.019531 7.109375 -20.5625 C 7.066406 -20.101562 7.046875 -19.304688 7.046875 -18.171875 L 7.046875 -12.6875 L 9.546875 -12.6875 L 13.734375 -19.28125 C 14.554688 -20.519531 15.347656 -21.453125 16.109375 -22.078125 L 14.0625 -22.015625 L 14.0625 -23.390625 L 21.25 -23.390625 L 21.25 -22.28125 C 20.21875 -22.1875 19.351562 -22.015625 18.65625 -21.765625 C 17.957031 -21.523438 17.269531 -21.09375 16.59375 -20.46875 C 15.925781 -19.851562 15.226562 -18.953125 14.5 -17.765625 L 11.21875 -12.5625 C 11.707031 -12.25 12.128906 -11.90625 12.484375 -11.53125 C 12.847656 -11.164062 13.164062 -10.800781 13.4375 -10.4375 C 13.71875 -10.070312 13.90625 -9.832031 14 -9.71875 L 17.734375 -4.75 C 18.554688 -3.65625 19.238281 -2.847656 19.78125 -2.328125 C 20.332031 -1.816406 20.804688 -1.484375 21.203125 -1.328125 C 21.609375 -1.179688 22.09375 -1.109375 22.65625 -1.109375 L 22.65625 0 L 18.578125 0 C 17.992188 0 16.867188 -1.09375 15.203125 -3.28125 L 11.1875 -8.6875 C 10.65625 -9.375 10.191406 -9.941406 9.796875 -10.390625 C 9.410156 -10.835938 9.039062 -11.171875 8.6875 -11.390625 L 7.046875 -11.359375 L 7.046875 -3.96875 C 7.046875 -2.789062 7.015625 -1.914062 6.953125 -1.34375 L 9.359375 -1.46875 L 9.359375 0 L 1.84375 0 Z M 1.84375 -1.109375 "/></g></g></g><g fill="#ffffff" fill-opacity="1"><g transform="translate(96.47205, 202.211456)"><g><path d="M 28.125 18.59375 C 29.15625 18.632812 30.175781 18.597656 31.1875 18.484375 C 32.207031 18.378906 33.179688 18.125 34.109375 17.71875 C 36.910156 16.382812 37.867188 14.28125 36.984375 11.40625 C 36.503906 9.925781 35.75 8.570312 34.71875 7.34375 C 33.53125 5.832031 32.222656 4.429688 30.796875 3.140625 C 29.378906 1.847656 27.914062 0.609375 26.40625 -0.578125 C 25.550781 -1.203125 24.753906 -1.179688 24.015625 -0.515625 C 21.691406 1.222656 19.601562 3.160156 17.75 5.296875 C 16.945312 6.265625 16.265625 7.320312 15.703125 8.46875 C 14.484375 11.3125 15.078125 13.710938 17.484375 15.671875 C 18.628906 16.554688 19.898438 17.195312 21.296875 17.59375 C 23.515625 18.257812 25.789062 18.59375 28.125 18.59375 Z M 29.515625 -4.359375 C 29.617188 -3.972656 29.789062 -3.65625 30.03125 -3.40625 C 30.269531 -3.15625 30.519531 -2.945312 30.78125 -2.78125 C 30.96875 -2.644531 31.148438 -2.503906 31.328125 -2.359375 C 32.035156 -1.753906 32.742188 -1.117188 33.453125 -0.453125 C 34.773438 0.710938 36.0625 1.875 37.3125 3.03125 C 39.132812 4.695312 40.597656 6.640625 41.703125 8.859375 C 42.816406 11.078125 43.101562 13.226562 42.5625 15.3125 C 42.03125 17.40625 40.394531 19.078125 37.65625 20.328125 C 36.5 20.847656 35.28125 21.195312 34 21.375 C 31.507812 21.675781 29.007812 21.796875 26.5 21.734375 C 24 21.679688 21.523438 21.320312 19.078125 20.65625 C 17.890625 20.332031 16.738281 19.90625 15.625 19.375 C 14.519531 18.851562 13.523438 18.171875 12.640625 17.328125 C 9.472656 14.441406 8.804688 11.066406 10.640625 7.203125 C 11.390625 5.703125 12.335938 4.328125 13.484375 3.078125 C 15.359375 1.128906 17.351562 -0.679688 19.46875 -2.359375 C 20.539062 -3.203125 21.066406 -3.816406 21.046875 -4.203125 C 21.023438 -4.585938 20.410156 -5.132812 19.203125 -5.84375 C 17.046875 -7.289062 14.859375 -8.726562 12.640625 -10.15625 C 11.472656 -10.90625 10.3125 -11.664062 9.15625 -12.4375 C 8.457031 -12.914062 7.753906 -13.378906 7.046875 -13.828125 C 5.273438 -14.929688 3.519531 -16.097656 1.78125 -17.328125 C -0.175781 -18.722656 -2.003906 -20.234375 -3.703125 -21.859375 C -5.410156 -23.492188 -6.910156 -25.34375 -8.203125 -27.40625 C -10.859375 -31.695312 -11.84375 -36.078125 -11.15625 -40.546875 C -10.46875 -45.023438 -8.515625 -49.34375 -5.296875 -53.5 C -2.085938 -57.65625 1.953125 -61.394531 6.828125 -64.71875 C 11.710938 -68.039062 17.003906 -70.726562 22.703125 -72.78125 C 28.410156 -74.84375 34.09375 -76.03125 39.75 -76.34375 C 45.40625 -76.65625 50.601562 -75.859375 55.34375 -73.953125 C 60.082031 -72.046875 63.984375 -68.765625 67.046875 -64.109375 C 67.585938 -63.265625 68.046875 -62.367188 68.421875 -61.421875 C 68.796875 -60.472656 68.984375 -59.46875 68.984375 -58.40625 C 68.984375 -57.332031 68.5 -56.664062 67.53125 -56.40625 C 66.863281 -56.21875 66.253906 -56.222656 65.703125 -56.421875 C 65.148438 -56.628906 64.734375 -56.957031 64.453125 -57.40625 C 64.410156 -57.519531 64.367188 -57.671875 64.328125 -57.859375 C 64.285156 -57.953125 64.265625 -58.039062 64.265625 -58.125 C 62.234375 -63.75 59.21875 -67.757812 55.21875 -70.15625 C 51.226562 -72.5625 46.710938 -73.6875 41.671875 -73.53125 C 36.628906 -73.382812 31.484375 -72.285156 26.234375 -70.234375 C 20.984375 -68.191406 16.046875 -65.585938 11.421875 -62.421875 C 6.804688 -59.253906 2.9375 -55.847656 -0.1875 -52.203125 C -3.3125 -48.566406 -5.242188 -45.035156 -5.984375 -41.609375 C -6.753906 -37.359375 -6.03125 -33.421875 -3.8125 -29.796875 C -2.039062 -26.722656 0.226562 -24.097656 3 -21.921875 C 5.113281 -20.253906 7.28125 -18.660156 9.5 -17.140625 C 11.488281 -15.859375 13.460938 -14.59375 15.421875 -13.34375 C 18.117188 -11.625 20.78125 -9.878906 23.40625 -8.109375 C 24.15625 -7.554688 24.851562 -7.304688 25.5 -7.359375 C 26.144531 -7.410156 26.816406 -7.679688 27.515625 -8.171875 C 31.023438 -10.285156 34.488281 -12.226562 37.90625 -14 C 41.320312 -15.769531 43.21875 -16.257812 43.59375 -15.46875 C 43.96875 -14.675781 43.429688 -13.742188 41.984375 -12.671875 C 38.546875 -10.859375 35.257812 -8.820312 32.125 -6.5625 C 31.9375 -6.476562 31.765625 -6.367188 31.609375 -6.234375 C 30.753906 -5.785156 30.054688 -5.160156 29.515625 -4.359375 Z M 29.515625 -4.359375 "/></g></g></g><g fill="#ffffff" fill-opacity="1"><g transform="translate(135.5132, 202.211456)"><g><path d="M 42.375 -15.421875 C 43.664062 -15.546875 44.507812 -15.273438 44.90625 -14.609375 C 45.3125 -13.941406 44.285156 -13.15625 41.828125 -12.25 C 39.367188 -11.34375 36.925781 -10.5 34.5 -9.71875 C 32.082031 -8.945312 29.492188 -8.003906 26.734375 -6.890625 C 25.328125 -6.367188 23.96875 -5.773438 22.65625 -5.109375 C 21.34375 -4.441406 20.128906 -3.597656 19.015625 -2.578125 C 17.734375 -1.378906 16.203125 -0.84375 14.421875 -0.96875 C 14.035156 -1.007812 13.660156 -1.109375 13.296875 -1.265625 C 12.941406 -1.429688 12.679688 -1.6875 12.515625 -2.03125 C 12.335938 -2.46875 12.332031 -2.851562 12.5 -3.1875 C 12.675781 -3.519531 12.925781 -3.796875 13.25 -4.015625 C 13.769531 -4.609375 14.363281 -5.101562 15.03125 -5.5 C 16.757812 -6.507812 18.175781 -7.789062 19.28125 -9.34375 C 20.394531 -10.894531 21.359375 -12.554688 22.171875 -14.328125 C 22.691406 -15.660156 22.582031 -16.75 21.84375 -17.59375 C 21.113281 -18.445312 20.140625 -18.851562 18.921875 -18.8125 C 17.703125 -18.769531 16.628906 -18.101562 15.703125 -16.8125 C 14.023438 -14.050781 12.78125 -11.097656 11.96875 -7.953125 C 10.945312 -4.367188 10.128906 -0.738281 9.515625 2.9375 C 8.898438 6.625 8.347656 10.332031 7.859375 14.0625 C 7.640625 15.570312 7.421875 17.082031 7.203125 18.59375 C 6.753906 21.601562 6.472656 24.628906 6.359375 27.671875 C 6.253906 30.710938 6.203125 33.757812 6.203125 36.8125 C 6.203125 37.03125 6.203125 37.226562 6.203125 37.40625 C 6.203125 38.882812 6.222656 40.347656 6.265625 41.796875 C 6.265625 44.078125 6.238281 46.363281 6.1875 48.65625 C 6.132812 50.957031 6 53.269531 5.78125 55.59375 C 5.738281 55.851562 5.71875 56.09375 5.71875 56.3125 C 5.71875 56.570312 5.695312 56.832031 5.65625 57.09375 C 5.476562 59.050781 4.570312 60.03125 2.9375 60.03125 L 2.78125 60.03125 C 2.5625 60.03125 2.320312 60.007812 2.0625 59.96875 C 0.90625 59.832031 0.195312 59.207031 -0.0625 58.09375 C -0.28125 57.207031 -0.410156 56.320312 -0.453125 55.4375 C -0.859375 48.882812 -0.75 42.320312 -0.125 35.75 C -0.0820312 35.488281 -0.0390625 35.207031 0 34.90625 C 0.257812 31.738281 0.5 28.5625 0.71875 25.375 C 0.945312 22.1875 1.019531 18.96875 0.9375 15.71875 C 0.71875 8.625 0.515625 1.53125 0.328125 -5.5625 C 0.191406 -10.257812 0.0625 -14.988281 -0.0625 -19.75 C -0.101562 -20.632812 -0.171875 -21.488281 -0.265625 -22.3125 C -0.347656 -22.976562 -0.410156 -23.644531 -0.453125 -24.3125 C -0.515625 -25.601562 -0.03125 -26.410156 1 -26.734375 C 2.550781 -27.078125 3.640625 -26.65625 4.265625 -25.46875 C 4.785156 -24.132812 5.066406 -22.734375 5.109375 -21.265625 C 5.171875 -20.515625 5.222656 -19.757812 5.265625 -19 C 5.566406 -15.945312 5.695312 -12.867188 5.65625 -9.765625 C 5.65625 -9.441406 5.675781 -9.0625 5.71875 -8.625 C 5.757812 -8.394531 5.890625 -8.304688 6.109375 -8.359375 C 6.328125 -8.410156 6.523438 -8.613281 6.703125 -8.96875 C 6.890625 -9.320312 7.023438 -9.671875 7.109375 -10.015625 C 7.171875 -10.191406 7.222656 -10.375 7.265625 -10.5625 C 8.109375 -13.132812 9.210938 -15.570312 10.578125 -17.875 C 11.867188 -20.175781 13.796875 -21.546875 16.359375 -21.984375 C 19.378906 -22.390625 22.265625 -21.925781 25.015625 -20.59375 C 27.585938 -19.363281 28.492188 -17.347656 27.734375 -14.546875 C 27.515625 -13.703125 27.289062 -13.035156 27.0625 -12.546875 C 26.90625 -12.066406 26.828125 -11.722656 26.828125 -11.515625 C 26.828125 -11.316406 27.007812 -11.226562 27.375 -11.25 C 27.75 -11.269531 28.421875 -11.410156 29.390625 -11.671875 C 31.003906 -12.117188 32.609375 -12.632812 34.203125 -13.21875 C 35.535156 -13.695312 36.875 -14.140625 38.21875 -14.546875 C 39.570312 -14.953125 40.957031 -15.242188 42.375 -15.421875 Z M 42.375 -15.421875 "/></g></g></g><g fill="#ffffff" fill-opacity="1"><g transform="translate(177.155078, 202.211456)"><g><path d="M 27.703125 -15.21875 C 27.921875 -15.175781 28.070312 -15.109375 28.15625 -15.015625 C 28.238281 -14.921875 28.328125 -14.742188 28.421875 -14.484375 C 28.503906 -14.222656 28.414062 -13.910156 28.15625 -13.546875 C 27.894531 -13.179688 27.65625 -12.890625 27.4375 -12.671875 C 25.78125 -11.117188 23.84375 -10.191406 21.625 -9.890625 C 20.351562 -9.710938 19.082031 -9.664062 17.8125 -9.75 C 16.539062 -9.84375 15.289062 -10.148438 14.0625 -10.671875 C 13.175781 -11.117188 12.347656 -10.988281 11.578125 -10.28125 C 9.984375 -8.832031 8.320312 -7.441406 6.59375 -6.109375 C 5.707031 -5.441406 4.773438 -4.882812 3.796875 -4.4375 C 2.816406 -4 1.753906 -3.75 0.609375 -3.6875 C -2.765625 -3.75 -4.097656 -5.394531 -3.390625 -8.625 C -3.347656 -8.757812 -3.296875 -8.867188 -3.234375 -8.953125 C -2.265625 -11.578125 -0.984375 -13.941406 0.609375 -16.046875 C 2.203125 -18.148438 4.21875 -19.910156 6.65625 -21.328125 C 8.269531 -22.273438 10.003906 -22.632812 11.859375 -22.40625 C 12.335938 -22.3125 12.800781 -22.128906 13.25 -21.859375 C 13.789062 -21.597656 14.007812 -21.175781 13.90625 -20.59375 C 13.863281 -20.414062 13.773438 -20.257812 13.640625 -20.125 C 13.515625 -20 13.382812 -19.875 13.25 -19.75 C 13.164062 -19.644531 13.054688 -19.570312 12.921875 -19.53125 C 12.796875 -19.488281 12.660156 -19.46875 12.515625 -19.46875 C 11.191406 -19.4375 10.050781 -19.050781 9.09375 -18.3125 C 8.132812 -17.570312 7.257812 -16.738281 6.46875 -15.8125 C 5.582031 -14.820312 4.757812 -13.734375 4 -12.546875 C 3.25 -11.359375 2.628906 -9.9375 2.140625 -8.28125 C 3.921875 -9.3125 5.316406 -10.332031 6.328125 -11.34375 C 6.546875 -11.5625 6.765625 -11.765625 6.984375 -11.953125 C 7.171875 -12.128906 7.351562 -12.289062 7.53125 -12.4375 C 8.414062 -13.257812 9.34375 -13.984375 10.3125 -14.609375 C 11.414062 -15.234375 12.515625 -15.546875 13.609375 -15.546875 C 14.703125 -15.546875 15.757812 -15.101562 16.78125 -14.21875 C 18.195312 -12.96875 19.566406 -12.476562 20.890625 -12.75 C 22.222656 -13.019531 23.46875 -13.488281 24.625 -14.15625 C 25.789062 -14.863281 26.816406 -15.21875 27.703125 -15.21875 Z M 27.703125 -15.21875 "/></g></g></g><g fill="#ffffff" fill-opacity="1"><g transform="translate(202.769219, 202.211456)"><g><path d="M 22.40625 -13.875 C 22.507812 -13.914062 22.582031 -13.957031 22.625 -14 C 23.101562 -14.28125 23.644531 -14.570312 24.25 -14.875 C 24.851562 -15.175781 25.394531 -15.316406 25.875 -15.296875 C 26.363281 -15.273438 26.648438 -14.953125 26.734375 -14.328125 C 26.691406 -13.398438 25.695312 -12.414062 23.75 -11.375 C 21.8125 -10.34375 19.421875 -9.359375 16.578125 -8.421875 C 13.734375 -7.484375 10.988281 -6.738281 8.34375 -6.1875 C 5.707031 -5.632812 3.722656 -5.382812 2.390625 -5.4375 C 0.878906 -5.601562 -0.226562 -6.15625 -0.9375 -7.09375 C -1.644531 -8.03125 -1.90625 -9.273438 -1.71875 -10.828125 C -1.457031 -12.503906 -0.695312 -14.207031 0.5625 -15.9375 C 1.820312 -17.664062 3.484375 -19.03125 5.546875 -20.03125 C 7.617188 -21.03125 9.914062 -21.3125 12.4375 -20.875 C 12.832031 -20.832031 13.160156 -20.675781 13.421875 -20.40625 C 13.566406 -20.3125 13.691406 -20.175781 13.796875 -20 C 13.910156 -19.832031 13.945312 -19.65625 13.90625 -19.46875 C 13.863281 -18.925781 13.53125 -18.578125 12.90625 -18.421875 C 12.28125 -18.273438 11.675781 -18.203125 11.09375 -18.203125 C 10.976562 -18.203125 10.847656 -18.179688 10.703125 -18.140625 C 9.109375 -17.921875 7.546875 -17 6.015625 -15.375 C 4.484375 -13.75 3.628906 -11.988281 3.453125 -10.09375 C 3.453125 -9.289062 4.242188 -8.910156 5.828125 -8.953125 C 7.410156 -8.992188 9.316406 -9.316406 11.546875 -9.921875 C 13.785156 -10.523438 15.910156 -11.1875 17.921875 -11.90625 C 19.941406 -12.632812 21.4375 -13.289062 22.40625 -13.875 Z M 22.40625 -13.875 "/></g></g></g><g fill="#ffffff" fill-opacity="1"><g transform="translate(226.720099, 202.211456)"><g><path d="M 6.4375 -11.828125 C 6.394531 -11.828125 6.359375 -11.828125 6.328125 -11.828125 C 6.328125 -11.828125 6.34375 -11.828125 6.375 -11.828125 C 6.375 -11.828125 6.394531 -11.828125 6.4375 -11.828125 Z M 27.609375 -14.875 C 27.828125 -15.019531 28.175781 -15.1875 28.65625 -15.375 C 29.144531 -15.570312 29.613281 -15.679688 30.0625 -15.703125 C 30.507812 -15.734375 30.820312 -15.570312 31 -15.21875 C 31.132812 -14.945312 31.164062 -14.691406 31.09375 -14.453125 C 31.03125 -14.210938 30.910156 -14.003906 30.734375 -13.828125 C 29.617188 -12.609375 27.894531 -11.378906 25.5625 -10.140625 C 23.238281 -8.898438 20.828125 -7.804688 18.328125 -6.859375 C 15.828125 -5.910156 13.75 -5.296875 12.09375 -5.015625 C 10.195312 -4.671875 8.273438 -4.59375 6.328125 -4.78125 C 3.921875 -5.082031 2.132812 -6.070312 0.96875 -7.75 C -0.195312 -9.4375 -0.671875 -11.328125 -0.453125 -13.421875 C -0.109375 -15.765625 0.957031 -17.625 2.75 -19 C 4.539062 -20.382812 6.597656 -20.894531 8.921875 -20.53125 C 10.328125 -20.351562 11.609375 -19.84375 12.765625 -19 C 14.015625 -17.988281 14.570312 -16.828125 14.4375 -15.515625 C 14.3125 -14.203125 13.53125 -13.191406 12.09375 -12.484375 C 11.351562 -12.128906 10.523438 -11.90625 9.609375 -11.8125 C 8.703125 -11.71875 7.644531 -11.722656 6.4375 -11.828125 C 6.4375 -11.828125 6.40625 -11.828125 6.34375 -11.828125 C 6.289062 -11.828125 6.195312 -11.828125 6.0625 -11.828125 C 5.925781 -11.828125 5.789062 -11.828125 5.65625 -11.828125 C 5.289062 -11.828125 5.050781 -11.722656 4.9375 -11.515625 C 4.832031 -11.316406 4.828125 -11.066406 4.921875 -10.765625 C 5.585938 -9.109375 6.894531 -8.234375 8.84375 -8.140625 C 10.789062 -8.054688 13 -8.425781 15.46875 -9.25 C 17.9375 -10.082031 20.28125 -11.039062 22.5 -12.125 C 24.71875 -13.21875 26.421875 -14.132812 27.609375 -14.875 Z M 6.375 -16.8125 C 6.070312 -16.59375 5.863281 -16.335938 5.75 -16.046875 C 5.644531 -15.753906 5.582031 -15.503906 5.5625 -15.296875 C 5.539062 -15.097656 5.570312 -14.976562 5.65625 -14.9375 C 5.738281 -14.894531 5.988281 -14.835938 6.40625 -14.765625 C 6.832031 -14.703125 7.300781 -14.691406 7.8125 -14.734375 C 8.332031 -14.785156 8.757812 -14.894531 9.09375 -15.0625 C 9.425781 -15.238281 9.539062 -15.550781 9.4375 -16 C 9.21875 -16.625 8.789062 -17.015625 8.15625 -17.171875 C 7.519531 -17.335938 6.925781 -17.21875 6.375 -16.8125 Z M 6.375 -16.8125 "/></g></g></g><g fill="#ffffff" fill-opacity="1"><g transform="translate(254.662793, 202.211456)"><g><path d="M 26.671875 -15.15625 C 27.441406 -15.007812 27.863281 -14.59375 27.9375 -13.90625 C 28.019531 -13.226562 27.671875 -12.535156 26.890625 -11.828125 C 26.117188 -11.160156 25.378906 -10.535156 24.671875 -9.953125 C 22.898438 -8.492188 21 -6.941406 18.96875 -5.296875 C 17.375 -4.003906 15.910156 -2.582031 14.578125 -1.03125 C 13.585938 0.0195312 12.851562 1.210938 12.375 2.546875 C 11.84375 4.273438 10.953125 5.828125 9.703125 7.203125 C 9.003906 8.003906 8.195312 8.492188 7.28125 8.671875 C 6.375 8.859375 5.429688 8.8125 4.453125 8.53125 C 3.960938 8.40625 3.597656 8.148438 3.359375 7.765625 C 3.117188 7.390625 3.066406 6.957031 3.203125 6.46875 C 3.367188 5.726562 3.648438 5.023438 4.046875 4.359375 C 4.628906 3.503906 5.253906 2.675781 5.921875 1.875 C 5.960938 1.789062 6.023438 1.710938 6.109375 1.640625 C 8.429688 -1.242188 8.570312 -4.203125 6.53125 -7.234375 C 6.03125 -7.890625 5.476562 -8.53125 4.875 -9.15625 C 4.6875 -9.382812 4.484375 -9.609375 4.265625 -9.828125 C 3.898438 -10.273438 3.515625 -10.695312 3.109375 -11.09375 C 2.367188 -11.882812 1.644531 -12.722656 0.9375 -13.609375 C -1.0625 -16.410156 -0.929688 -19.09375 1.328125 -21.65625 C 3.285156 -23.96875 5.726562 -25.570312 8.65625 -26.46875 C 10.46875 -26.988281 12.21875 -26.828125 13.90625 -25.984375 C 15.539062 -25.085938 16.300781 -23.710938 16.1875 -21.859375 C 16 -20.609375 15.375 -19.875 14.3125 -19.65625 C 12.9375 -19.394531 11.957031 -19.816406 11.375 -20.921875 C 11.1875 -21.367188 11.054688 -21.753906 10.984375 -22.078125 C 10.898438 -22.421875 10.785156 -22.679688 10.640625 -22.859375 C 10.503906 -23.046875 10.285156 -23.101562 9.984375 -23.03125 C 9.679688 -22.957031 9.195312 -22.71875 8.53125 -22.3125 C 7.5 -21.707031 6.609375 -20.914062 5.859375 -19.9375 C 4.648438 -18.476562 4.582031 -16.921875 5.65625 -15.265625 C 6.019531 -14.742188 6.421875 -14.265625 6.859375 -13.828125 C 7.347656 -13.273438 7.8125 -12.738281 8.25 -12.21875 C 9.144531 -11.332031 9.988281 -10.425781 10.78125 -9.5 C 11.570312 -8.570312 12.265625 -7.570312 12.859375 -6.5 C 13.296875 -6.582031 14.066406 -7 15.171875 -7.75 C 16.285156 -8.507812 17.492188 -9.390625 18.796875 -10.390625 C 20.097656 -11.390625 21.28125 -12.289062 22.34375 -13.09375 C 23.238281 -13.800781 23.863281 -14.285156 24.21875 -14.546875 C 24.519531 -14.765625 24.894531 -14.929688 25.34375 -15.046875 C 25.789062 -15.160156 26.234375 -15.195312 26.671875 -15.15625 Z M 26.671875 -15.15625 "/></g></g></g></svg>